<svg width="612" height="617.968" xmlns="http://www.w3.org/2000/svg">
 <title/>

 <desc/>
 <g>
  <title>background</title>
  <rect fill="none" id="canvas_background" height="402" width="582" y="-1" x="-1"/>
 </g>
 <g>
  <title>Layer 1</title>
  <g id="slice"/>
  <g id="XMLID_1_">
   <g id="svg_1">
    <path id="svg_2" d="m306.168,7.244c166.336,0 301.167,136.008 301.167,302.344c0,166.337 -134.831,301.168 -301.167,301.168c-166.336,0 -301.168,-134.831 -301.168,-301.168c0,-166.337 134.832,-302.344 301.168,-302.344zm200.936,276.463c0,0 -38.34,-2.294 -52.222,-7.482c-0.706,-3.271 -1.459,-6.353 -2.235,-9.188c-10.564,-38.905 -46.834,-70.257 -84.786,-66.469c-13.528,-10.871 -2.271,-27.164 -1.765,-31.576c-35.822,4.458 -55.387,66.927 -69.774,105.009c-11.293,-10.953 -21.34,-19.6 -30.316,-24.411c-25.2,-13.517 -55.352,-27.634 -102.645,-45.199c-1.447,15.646 -0.941,129.667 88.704,162.313c-42.599,44.093 -109.82,40.811 -148.384,3.965c100.727,137.432 319.732,81.269 352.355,-51.081c24.492,0.188 51.068,-35.881 51.068,-35.881z" fill="#1da1f2"/>
   </g>
   <g id="svg_3"/>
  </g>
 </g>
</svg>